<svg width="1136" height="174" viewBox="0 0 1136 174" fill="none" xmlns="http://www.w3.org/2000/svg">
<path fill-rule="evenodd" clip-rule="evenodd" d="M72.1617 0.642209C72.9414 0.367139 73.6555 0.532549 74.1223 0.768016C76.3918 1.91283 78.6484 3.64262 80.3614 5.43002C87.7009 13.0885 90.7081 24.6811 90.3256 35.2594C96.2474 32.4907 102.985 32.2203 109.425 32.9287C115.995 33.6515 122.59 35.4389 128.112 36.9353C128.793 37.12 129.459 37.3004 130.105 37.4737C133.011 38.2522 145.447 41.61 156.461 46.5208C161.937 48.9624 167.279 51.8812 170.911 55.1932C174.491 58.4574 177.115 62.8339 175.016 67.7468C174.152 69.7704 172.12 71.2226 170.316 72.259C170.008 72.4355 169.692 72.6086 169.368 72.7783C169.635 73.1494 169.804 73.5984 169.834 74.0888C169.839 74.1801 169.853 74.2852 169.875 74.4281C169.877 74.4415 169.88 74.4602 169.884 74.4819C169.893 74.5382 169.905 74.6145 169.913 74.6688C169.921 74.7234 169.953 74.9257 169.955 75.1488C169.957 75.2396 169.96 75.5417 169.858 75.9028C169.775 76.1952 169.385 77.3147 168.072 77.6587C166.962 77.9497 166.147 77.3948 166.008 77.3007L166.006 77.2989C165.759 77.1312 165.594 76.9549 165.53 76.8848C165.306 76.64 165.089 76.3081 164.96 76.1103L164.95 76.0952C164.725 75.7493 164.478 75.4133 164.212 75.0846C164.126 75.1191 164.04 75.1534 163.954 75.1875C163.163 75.5014 162.408 75.7927 161.697 76.0674C161.208 76.2562 160.74 76.4371 160.293 76.6122C161.652 77.0701 163.196 77.566 164.761 78.0566C167.12 78.7963 169.498 79.5141 171.31 80.0559C172.038 80.2736 172.673 80.4624 173.18 80.613L173.68 80.7615C174.082 80.8809 174.487 81.0014 174.629 81.0555C174.97 81.186 175.321 81.3196 175.68 81.4565C180.507 83.2963 186.872 85.7226 192.661 88.9542C198.817 92.3905 204.802 96.9917 207.437 103.248C212.176 114.501 206.005 126.06 198.073 135.301C190.003 144.705 179.304 152.674 172.905 157.18C154.952 169.819 134.67 174.203 113.304 173.704C106.599 173.548 98.6845 172.843 92.9528 169.849C90.0189 168.317 87.5004 166.106 86.098 162.932C84.6952 159.757 84.5569 155.955 85.7443 151.523C86.1016 150.19 87.4725 149.398 88.8061 149.756C90.1398 150.113 90.9313 151.484 90.5739 152.817C89.5951 156.47 89.8489 159.05 90.6714 160.911C91.4943 162.773 93.0344 164.251 95.2674 165.417C99.8697 167.821 106.723 168.549 113.42 168.706C134.007 169.186 153.159 164.966 170.026 153.091C176.367 148.627 186.635 140.951 194.279 132.045C202.063 122.976 206.355 113.561 202.829 105.189C200.865 100.525 196.129 96.616 190.224 93.32C184.767 90.2736 178.722 87.968 173.851 86.1103C173.509 85.9799 173.173 85.8517 172.843 85.7256C172.897 85.7463 172.83 85.7262 172.559 85.6452C172.445 85.6111 172.295 85.5662 172.102 85.5089C171.556 85.3464 170.788 85.1185 169.878 84.8463C168.057 84.3019 165.655 83.5769 163.265 82.8277C160.883 82.0809 158.48 81.3002 156.669 80.6455C155.774 80.3219 154.965 80.0081 154.361 79.73C154.075 79.598 153.736 79.4296 153.438 79.2309C153.301 79.1392 153.051 78.9616 152.813 78.6942C152.659 78.5209 151.983 77.7332 152.17 76.5481C152.302 75.7133 152.754 75.1316 153.058 74.8099C153.382 74.4674 153.75 74.1974 154.07 73.9904C154.711 73.5752 155.511 73.1907 156.316 72.8392C157.374 72.3772 158.692 71.8677 160.046 71.3447C160.108 71.3207 160.17 71.2966 160.232 71.2726C159.947 71.0348 159.656 70.795 159.362 70.5521C158.825 70.1085 158.402 69.7721 158.064 69.5025C157.95 69.4116 157.845 69.3282 157.748 69.2509C157.579 69.1145 157.382 68.9554 157.226 68.8118C157.159 68.7506 157.005 68.6069 156.855 68.4154C156.784 68.3251 156.631 68.1196 156.505 67.8264C156.398 67.576 156.139 66.8619 156.441 65.9977C156.785 65.0136 157.573 64.5895 158.02 64.4393C158.428 64.3022 158.773 64.3034 158.906 64.3064C159.196 64.3131 159.438 64.368 159.517 64.386C159.722 64.4326 159.96 64.5045 160.131 64.5568C160.19 64.5745 160.25 64.593 160.313 64.6124C160.688 64.727 161.156 64.8701 161.754 65.0304C162.914 65.3413 163.664 66.419 163.604 67.572C164.194 68.0639 164.807 68.5868 165.418 69.1442C166.286 68.7468 167.099 68.3404 167.825 67.9233C169.551 66.932 170.252 66.1719 170.418 65.7827C171.227 63.8888 170.623 61.6966 167.542 58.8879C164.515 56.127 159.766 53.469 154.425 51.0874C143.804 46.3518 131.704 43.0783 128.811 42.3033C128.152 42.1266 127.481 41.9451 126.801 41.761C121.239 40.2553 115.035 38.576 108.878 37.8987C101.966 37.1384 95.5334 37.6987 90.4359 40.8776C90.1861 41.0333 89.9446 41.1947 89.7111 41.3614C89.5938 42.0583 89.4607 42.7478 89.3118 43.4283C89.032 44.7077 88.6305 45.7042 88.3586 46.3791C88.3049 46.5124 88.2563 46.6331 88.2146 46.741C87.9676 47.3809 87.9493 47.58 87.9879 47.8477C88.8417 53.7735 88.7391 60.025 88.0741 66.3227C90.7211 67.9606 93.6069 69.8321 95.511 72.0165C96.6758 73.3527 97.6335 74.9744 97.8836 76.9094C98.1387 78.8836 97.6155 80.8559 96.4109 82.7843C94.8983 85.2058 92.6377 86.4711 90.1421 86.5412C88.2491 86.5945 86.4097 85.9594 84.8098 84.9442C83.5608 90.3922 82.1408 95.7692 80.8004 100.845C80.018 103.808 79.2626 106.668 78.5842 109.38C78.5245 109.619 78.4246 110.113 78.2862 110.798C77.7789 113.31 76.7535 118.386 75.2858 122.846C74.343 125.71 73.1219 128.66 71.5395 130.792C69.9893 132.88 67.4544 134.933 64.1192 133.898C62.9246 133.527 61.7996 132.78 60.861 132.036C59.8874 131.264 58.9349 130.348 58.0805 129.458C56.7953 128.12 55.5928 126.686 54.8479 125.798C54.62 125.526 54.435 125.305 54.3034 125.154C47.9258 117.818 41.8807 110.215 35.9392 102.599C34.9134 101.284 33.8773 99.9628 32.8356 98.6347C23.2379 86.3981 13.1667 73.5577 6.30372 59.2345C5.5169 57.5923 4.95405 55.4165 4.45871 53.5017C4.37767 53.1884 4.29844 52.8821 4.22033 52.5863C3.85798 51.214 3.51219 50.0273 3.13897 49.0622C3.04826 49.0484 2.95738 49.0294 2.86667 49.0051C2.61088 48.9365 2.23688 48.8222 1.87619 48.617C1.69686 48.515 1.38524 48.3155 1.10083 47.9727C0.7913 47.5996 0.452092 46.9697 0.505612 46.1497C0.556696 45.3669 0.94019 44.8279 1.2021 44.5472C1.46066 44.2701 1.72651 44.1042 1.88056 44.0177C2.19068 43.8435 2.49134 43.7483 2.65809 43.7C3.02582 43.5935 3.40965 43.5301 3.66549 43.4959C3.80146 43.4777 3.94212 43.4623 4.07008 43.4532C4.1266 43.4492 4.22393 43.4432 4.33398 43.4437C4.37856 43.4439 4.50079 43.445 4.65189 43.4637C4.7195 43.4721 4.88552 43.4946 5.08822 43.5572C5.19058 43.5888 5.36714 43.6502 5.56953 43.763C5.75307 43.8653 6.11572 44.0963 6.41623 44.5352C7.72655 46.449 8.47528 49.1156 9.05464 51.3098C9.14639 51.6573 9.2345 51.9953 9.32005 52.3235C9.83354 54.2935 10.2546 55.9089 10.8128 57.0739C17.4241 70.872 27.1463 83.2728 36.7953 95.5802C37.8262 96.8952 38.8562 98.209 39.8816 99.5234C45.8097 107.123 51.789 114.641 58.0768 121.873C58.2782 122.105 58.5177 122.39 58.7905 122.716C59.5381 123.607 60.5359 124.796 61.6874 125.996C62.4581 126.798 63.2375 127.539 63.9677 128.118C64.733 128.725 65.2836 129.024 65.6016 129.123C65.8326 129.194 66.4021 129.323 67.5251 127.811C68.616 126.342 69.6372 124.015 70.5364 121.283C71.8818 117.195 72.7416 112.952 73.2798 110.297C73.4681 109.368 73.6171 108.633 73.7337 108.167C74.4436 105.329 75.2172 102.4 76.0095 99.4007C77.5883 93.4238 79.2411 87.1669 80.6112 80.7912C77.3652 75.9874 76.9918 69.7612 77.0743 64.6832C76.1219 63.7448 75.2701 62.6749 74.7034 61.4487C71.0959 53.6434 70.7267 44.3804 70.9839 35.4713C71.0634 32.7193 71.2002 30.0152 71.3338 27.374C71.6443 21.2342 71.9377 15.4338 71.4539 10.1596C71.4583 10.2112 71.4251 9.9911 71.3443 9.45583C71.331 9.36784 71.3164 9.27134 71.3005 9.16614C71.2007 8.5052 71.0694 7.63126 70.9424 6.76132C70.8159 5.89491 70.6916 5.01848 70.6069 4.35733C70.5652 4.03236 70.5294 3.7304 70.5085 3.49995C70.4992 3.39781 70.4867 3.24459 70.485 3.09288L70.485 3.08853C70.4843 3.03729 70.4819 2.83338 70.523 2.59286L70.5242 2.58545C70.5376 2.5045 70.6088 2.07461 70.9019 1.6287C71.0718 1.37027 71.4583 0.890355 72.1617 0.642209ZM82.1397 68.5206C82.1917 69.4347 82.2747 70.331 82.3977 71.2015C82.5158 70.4309 82.6266 69.6619 82.7295 68.8948C82.533 68.7712 82.3362 68.6464 82.1397 68.5206ZM83.3325 63.315C82.914 63.0267 82.5154 62.7399 82.1395 62.4525C82.1501 62.1766 82.1613 61.9022 82.1728 61.6296C82.3163 58.223 82.6314 54.8234 83.3945 51.716C83.7025 55.4348 83.6516 59.3221 83.3325 63.315ZM85.0433 38.7191C80.3037 43.0595 78.4567 49.2615 77.6849 55.1345C76.0144 49.3407 75.7782 42.6714 75.9819 35.6156C76.0535 33.135 76.1819 30.5893 76.311 28.0319C76.6292 21.7252 76.9511 15.3473 76.4328 9.70004C76.4236 9.60032 76.3614 9.19055 76.2928 8.73836C76.2768 8.63317 76.2605 8.52569 76.2444 8.41928C76.2423 8.40498 76.2401 8.39059 76.2379 8.37611C76.415 8.54605 76.5866 8.71748 76.7515 8.88957C83.7057 16.146 86.3345 28.1634 85.0433 38.7191ZM87.365 71.7952C86.9743 74.3657 86.5076 76.9388 85.9894 79.4965C86.2415 79.7498 86.5098 79.9924 86.7957 80.2235C87.9829 81.1837 89.1392 81.5675 90.0016 81.5432C90.7373 81.5225 91.4982 81.2113 92.1702 80.1354C92.8949 78.9752 93.0026 78.1519 92.9248 77.5502C92.842 76.9094 92.5031 76.1751 91.742 75.302C90.7022 74.1091 89.1808 72.9807 87.365 71.7952ZM5.28172 45.3119L4.3534 45.9475ZM164.97 75.4217C164.97 75.4204 164.969 75.414 164.967 75.4036C164.97 75.4178 164.97 75.4234 164.97 75.4217ZM899.484 56.5815C899.444 56.6427 899.404 56.704 899.363 56.7654C897.706 59.296 895.917 62.0256 893.927 64.3452C893.375 64.9889 892.711 65.6237 891.898 66.0123C890.964 66.4589 889.926 66.533 888.93 66.1403C888.845 66.1066 888.762 66.0702 888.682 66.0317C888.824 66.6598 889.018 67.5179 889.193 68.3096C889.333 68.9475 889.467 69.5658 889.553 69.9986C889.592 70.1953 889.635 70.4223 889.659 70.5983C889.663 70.6302 889.67 70.6805 889.675 70.7413C889.678 70.7684 889.68 70.7977 889.682 70.8283C889.685 70.8763 889.69 70.9663 889.687 71.0774C889.685 71.1295 889.68 71.4389 889.558 71.8054C889.501 71.9753 889.33 72.4387 888.878 72.8545C888.72 73.0001 888.544 73.1246 888.354 73.225C888.254 73.4063 888.108 73.6662 887.961 73.8812C886.769 75.6297 885.529 77.3018 884.198 78.9534C864.993 102.78 847.799 128.684 834.432 156.16C834.344 156.34 834.238 156.505 834.116 156.654C835.632 156.654 837.172 156.647 838.719 156.64C841.957 156.626 845.228 156.611 848.387 156.664C848.597 156.667 849.221 156.733 849.743 156.786L850.416 156.855C850.907 156.906 851.451 156.961 851.994 157.016C852.612 157.079 853.218 157.138 853.732 157.186C853.857 156.937 853.986 156.656 854.119 156.345C854.313 155.893 854.494 155.436 854.684 154.964C854.862 154.521 855.061 154.032 855.259 153.62C861.21 141.25 867.303 129.684 875.711 118.607C887.868 102.591 903.282 89.6364 919.761 78.5217C919.321 78.578 918.821 78.6138 918.336 78.5704C917.987 78.5392 916.603 78.3967 915.851 77.098C915.456 76.417 915.437 75.7412 915.477 75.3191C915.517 74.8889 915.636 74.5143 915.743 74.2389C915.956 73.6883 916.277 73.1437 916.587 72.6731C917.167 71.7901 917.955 70.7998 918.738 69.8745C916.67 71.3743 914.48 72.9373 912.203 74.2527C911.9 74.4276 911.493 74.6251 911.013 74.7241C910.516 74.8265 909.777 74.8523 909.033 74.449C908.279 74.0404 907.902 73.3989 907.727 72.9251C907.562 72.4769 907.53 72.0631 907.524 71.7999C907.513 71.276 907.604 70.7635 907.663 70.4607C907.696 70.2904 907.732 70.1268 907.758 70.0037C907.788 69.8653 907.805 69.7892 907.814 69.7359C908.594 65.4827 910.501 61.4578 912.208 57.8542C912.516 57.2043 912.818 56.5682 913.105 55.9468C913.104 55.9476 913.103 55.9484 913.102 55.9491C912.874 56.1688 912.607 56.4283 912.304 56.723L911.901 57.1142C910.964 58.0236 909.786 59.1603 908.597 60.2459C907.422 61.3175 906.172 62.4003 905.1 63.1715C904.578 63.5466 903.988 63.9296 903.405 64.1846C903.117 64.3105 902.708 64.4608 902.232 64.5137C901.762 64.566 900.957 64.5482 900.196 64.0047C899.521 63.5219 899.262 62.8704 899.166 62.5864C899.053 62.249 899.007 61.9297 898.985 61.7001C898.939 61.2327 898.955 60.7243 898.986 60.2682C899.05 59.3315 899.213 58.1928 899.392 57.1171C899.422 56.9412 899.452 56.7621 899.484 56.5815ZM935.139 68.9336C935.135 68.9365 935.131 68.9394 935.126 68.9424C935.166 68.9105 935.177 68.9057 935.139 68.9336ZM830.25 156.651C829.651 155.92 829.495 154.878 829.936 153.973C843.496 126.099 860.909 99.8788 880.305 75.8156C881.552 74.2687 882.713 72.7038 883.83 71.0645C883.823 71.0745 883.837 71.0546 883.88 70.9809C883.92 70.9118 883.965 70.8295 884.025 70.7206L884.046 70.6831C884.147 70.4993 884.292 70.2354 884.443 69.9935C884.401 69.8011 884.356 69.5971 884.31 69.3864C884.096 68.4159 883.856 67.3582 883.714 66.7347C883.671 66.544 883.637 66.394 883.615 66.2994C883.34 65.0779 883.034 63.8206 882.723 62.5386C881.943 59.3322 881.125 55.9712 880.658 52.6283C880.619 52.3477 880.56 51.9947 880.496 51.6302L880.475 51.5042C880.423 51.2059 880.366 50.8817 880.335 50.6601C880.326 50.5929 880.314 50.5033 880.306 50.4096C880.302 50.3632 880.296 50.2919 880.294 50.2082C880.293 50.1539 880.288 49.9638 880.325 49.7298C880.341 49.6255 880.389 49.3512 880.54 49.0341C880.668 48.7657 881.119 47.9568 882.181 47.6858C883.267 47.4083 884.065 47.9267 884.325 48.1257C884.617 48.3494 884.788 48.5848 884.851 48.6729C884.992 48.8725 885.073 49.0513 885.096 49.102C885.132 49.1809 885.16 49.2506 885.178 49.2979C885.285 49.5789 885.43 50.079 885.611 50.7297C886.667 54.5234 887.807 57.3912 890.016 60.4003L890.043 60.4369C890.152 60.5858 890.25 60.7194 890.342 60.8424C892.025 58.8403 893.454 56.6569 894.958 54.3585C895.709 53.2103 896.479 52.0333 897.309 50.836C898.659 48.8885 899.969 46.9526 901.206 44.9794C901.284 44.8547 901.382 44.6781 901.528 44.4047L901.587 44.294C901.709 44.064 901.858 43.7849 902.014 43.5121C902.342 42.9384 902.902 42.0177 903.736 41.3688C903.867 41.2671 904.105 41.0982 904.435 40.9707C904.763 40.8441 905.375 40.6866 906.098 40.9028C907.691 41.3787 907.888 42.9027 907.907 43.0524L907.907 43.0556C907.956 43.4295 907.917 43.7492 907.899 43.8858C907.875 44.0618 907.841 44.2261 907.811 44.3566C907.7 44.8378 907.505 45.4197 907.448 45.5986C907.249 46.2203 907.051 46.8182 906.858 47.3998C906.182 49.4386 905.573 51.2777 905.219 53.2454C905.181 53.4592 905.115 53.7837 905.031 54.1949C904.874 54.9649 904.656 56.039 904.441 57.2592C904.697 57.0322 904.96 56.7959 905.226 56.553C906.354 55.5227 907.486 54.4315 908.419 53.5265C908.55 53.3993 908.68 53.2727 908.808 53.1484C909.524 52.4516 910.167 51.8266 910.481 51.5639C910.81 51.2891 911.232 50.8899 911.796 50.3559C912.332 49.8483 912.963 49.2514 913.623 48.6801C914.28 48.112 915.017 47.5231 915.784 47.0388C916.526 46.571 917.457 46.0952 918.486 45.9237C918.808 45.8699 919.488 45.8104 920.207 46.1889C921.05 46.6325 921.434 47.3954 921.554 48.0014C921.656 48.5185 921.582 48.948 921.538 49.1519C921.487 49.3882 921.415 49.5862 921.361 49.7205C921.253 49.9889 921.126 50.2199 921.051 50.3496C921.032 50.3833 921.014 50.4142 920.998 50.4415C920.484 51.5615 919.992 52.6975 919.49 53.86L919.4 54.0683C918.912 55.1991 918.413 56.3556 917.891 57.5047C917.463 58.4456 917.032 59.36 916.609 60.2565C915.446 62.721 914.346 65.0509 913.564 67.4275C914.441 66.8138 915.318 66.1773 916.212 65.5287C916.861 65.0574 917.519 64.5796 918.193 64.0995C921.78 61.5418 925.472 58.9727 929.393 56.7053C929.422 56.6886 929.455 56.6689 929.507 56.6378L929.548 56.6133C929.616 56.5727 929.705 56.5197 929.799 56.4662L929.803 56.4641C929.935 56.3885 930.28 56.1923 930.661 56.0711L930.671 56.068C930.802 56.0258 931.405 55.8324 932.131 56.0078C932.597 56.1207 933.182 56.4057 933.61 57.0041C934.018 57.5739 934.093 58.1621 934.089 58.5321C934.082 59.1678 933.84 59.6526 933.769 59.7948C933.658 60.0169 933.527 60.2234 933.408 60.3964C931.869 62.6402 929.993 64.7675 928.256 66.7363C927.632 67.4443 927.026 68.1318 926.459 68.7968C926.364 68.9089 926.096 69.1936 925.763 69.5487C925.552 69.7726 925.316 70.0244 925.079 70.2787C924.473 70.9304 923.736 71.737 923.013 72.5694C923.635 72.3738 924.233 72.1755 924.758 71.998C925.034 71.9048 925.309 71.8104 925.561 71.724C926.012 71.5693 926.388 71.44 926.561 71.3889C927.786 71.0253 928.995 70.6177 930.255 70.1929C930.561 70.0898 930.87 69.9857 931.182 69.8809C932.757 69.3535 934.406 68.8196 936.104 68.3951C936.188 68.3741 936.391 68.3265 936.65 68.3174L936.66 68.317C936.792 68.3115 937.675 68.275 938.439 68.9742C939.559 69.9985 939.241 71.3128 939.094 71.7054C938.942 72.1104 938.721 72.3756 938.662 72.4465C938.428 72.7267 938.148 72.9281 938.102 72.9607L938.097 72.9644C937.909 73.1029 937.657 73.2658 937.464 73.3722C933.453 75.5826 929.547 78.0555 925.655 80.607C908.268 92.0052 892.156 105.211 879.693 121.63C871.594 132.301 865.673 143.505 859.765 155.788C859.604 156.122 859.465 156.474 859.289 156.915C859.137 157.299 858.957 157.751 858.713 158.32C858.312 159.253 857.679 160.631 856.767 161.542C856.435 161.874 856.093 162.028 855.951 162.087C855.839 162.133 855.739 162.165 855.659 162.187C855.617 162.199 855.581 162.208 855.552 162.214C855.386 162.252 855.251 162.266 855.193 162.271C855.142 162.275 855.093 162.278 855.05 162.28C854.985 162.282 854.933 162.282 854.902 162.282C854.836 162.282 854.768 162.28 854.703 162.277C854.651 162.275 854.6 162.272 854.554 162.269C854.336 162.257 854.054 162.234 853.745 162.207C853.12 162.153 852.302 162.073 851.492 161.991C850.941 161.935 850.385 161.878 849.889 161.827L849.235 161.76C848.965 161.733 848.759 161.712 848.609 161.697C848.348 161.671 848.258 161.662 848.303 161.663C845.097 161.609 842 161.625 838.872 161.64C836.303 161.653 833.715 161.666 831.029 161.64C830.985 161.64 830.903 161.642 830.794 161.644C830.352 161.653 829.455 161.671 828.742 161.6C828.253 161.551 827.62 161.449 827 161.192C826.376 160.934 825.549 160.424 825.059 159.444C824.442 158.209 824.942 156.707 826.177 156.09C827.188 155.584 828.377 155.828 829.114 156.61C829.151 156.615 829.192 156.62 829.239 156.625C829.482 156.649 829.769 156.656 830.096 156.653C830.148 156.652 830.199 156.652 830.25 156.651ZM920.405 76.0459C920.405 76.0454 920.405 76.0448 920.405 76.0443C920.402 76.0537 920.401 76.0545 920.405 76.0459ZM903.961 61.2175C903.961 61.217 903.961 61.2167 903.961 61.2162C903.963 61.2265 903.962 61.2274 903.961 61.2175ZM106.404 46.698C106.265 46.4118 106.068 46.1475 105.815 45.9231C104.782 45.0071 103.202 45.1019 102.286 46.135C101.985 46.4737 101.668 46.9809 101.57 47.6525C101.469 48.3453 101.64 48.9582 101.891 49.42C102.319 50.2068 103.015 50.63 103.339 50.8119C104.101 51.2401 105.097 51.5464 105.904 51.7629C106.771 51.9958 107.687 52.192 108.416 52.3414C108.617 52.3824 108.834 52.4261 109.024 52.4645C109.156 52.4911 109.276 52.5151 109.368 52.534C109.497 52.5603 109.602 52.5821 109.685 52.6002C109.726 52.6092 109.758 52.6164 109.782 52.622C109.805 52.6273 109.814 52.6299 109.814 52.6299L114.936 54.0022C116.27 54.3596 117.64 53.5681 117.998 52.2344C118.355 50.9008 117.564 49.5299 116.23 49.1726L111.108 47.8002C110.852 47.7315 110.371 47.6348 109.886 47.5374C109.729 47.5058 109.571 47.474 109.42 47.4431C108.713 47.2983 107.917 47.1264 107.2 46.9338C106.883 46.8488 106.618 46.7691 106.404 46.698ZM105.796 46.457C105.793 46.4557 105.791 46.4543 105.788 46.4529C105.74 46.4256 105.75 46.4253 105.796 46.457ZM983.181 57.9003C983.182 58.1683 983.187 58.4506 983.194 58.7413C983.214 59.5976 983.255 60.4627 983.291 61.1361C983.302 61.3245 983.313 61.5229 983.324 61.7089C983.345 62.0761 983.364 62.395 983.364 62.4938V122.523C983.803 122.167 984.243 121.812 984.683 121.459C992.884 114.867 1002.08 109.964 1011.44 105.599C1015.48 103.713 1019.49 101.959 1023.46 100.216C1028.53 97.995 1033.55 95.7931 1038.56 93.3619C1038.97 92.4556 1039.65 91.6527 1040.59 91.0035C1041.44 90.4175 1042.53 90.4333 1043.35 90.9574C1047.13 89.0112 1051.14 86.9655 1055.94 86.1961C1057.55 85.938 1060.85 85.4423 1064.06 85.4863C1065.66 85.5082 1067.37 85.6643 1068.9 86.118C1070.4 86.5621 1072.06 87.3974 1073.06 89.0366C1074.49 91.4041 1073.45 93.9674 1072.68 95.3847C1071.8 96.9805 1070.57 98.3994 1069.89 99.164C1064.55 105.168 1058.13 105.921 1051.18 106.332C1051.05 106.339 1050.91 106.349 1050.75 106.359C1049.48 106.442 1047.4 106.577 1045.49 106.304C1043.49 106.016 1040.38 105.071 1039.58 101.771C1039.45 101.242 1039.29 100.793 1039.1 100.242C1038.96 99.8565 1038.81 99.4208 1038.63 98.8727C1038.63 98.8722 1038.63 98.8716 1038.63 98.871C1034.24 100.944 1029.73 102.926 1025.26 104.89C1021.28 106.635 1017.34 108.365 1013.55 110.131C1004.33 114.432 995.555 119.136 987.815 125.356C986.33 126.55 984.845 127.759 983.364 128.982V131.296C983.364 132.677 982.245 133.796 980.864 133.796C980.033 133.796 979.297 133.391 978.842 132.768C975.137 135.914 971.482 139.131 967.93 142.383C974.005 142.21 980.1 141.768 986.233 141.32C996.165 140.594 1006.09 139.723 1016.02 138.852C1046.13 136.21 1076.31 133.563 1106.91 134.943C1107.31 134.961 1111.01 135.31 1115.46 135.728C1117.06 135.879 1118.75 136.038 1120.43 136.195C1123.63 136.495 1126.81 136.788 1129.18 136.999C1129.4 137.018 1129.61 137.037 1129.82 137.055C1129.69 136.714 1129.54 136.302 1129.44 135.905C1128.93 133.95 1128.5 131.988 1128.08 130.066L1127.91 129.281C1127.56 127.619 1127.21 125.991 1126.82 124.371C1126.51 123.086 1126.2 121.8 1125.89 120.513C1123.57 110.904 1121.24 101.242 1119.26 91.5148C1119.13 90.8953 1119.06 89.9352 1118.99 89.051L1118.97 88.824C1118.89 87.7755 1118.8 86.6185 1118.64 85.4972C1118.49 84.3564 1118.28 83.3808 1118.03 82.673C1117.88 82.2705 1117.76 82.0855 1117.72 82.0181C1116.43 81.4268 1114.8 81.0233 1112.91 80.6769C1112.23 80.5519 1111.48 80.4282 1110.7 80.3017C1109.46 80.098 1108.17 79.8873 1107.09 79.6533C1103.46 78.8637 1099.83 78.0285 1096.23 77.1974L1095.71 77.0789C1091.93 76.2076 1088.17 75.3431 1084.4 74.5342C1061.62 69.6515 1038.58 65.6566 1015.46 62.236C1005.19 60.716 994.885 59.4143 984.546 58.1871C984.037 58.1267 983.571 58.0089 983.208 57.9078C983.199 57.9053 983.19 57.9028 983.181 57.9003ZM1130.52 139.204C1130.52 139.203 1130.52 139.203 1130.52 139.202ZM978.364 126.634C972.365 131.643 966.448 136.859 960.839 142.145C960.578 142.392 960.292 142.692 960.059 143.039C959.863 143.33 959.465 144 959.521 144.902C959.592 146.042 960.311 146.769 960.921 147.112C961.427 147.396 961.924 147.472 962.172 147.502C962.699 147.564 963.278 147.528 963.619 147.506C963.743 147.498 963.852 147.49 963.951 147.483C964.211 147.465 964.396 147.452 964.569 147.451C971.956 147.373 979.339 146.836 986.597 146.306C996.692 145.569 1006.72 144.689 1016.71 143.813C1046.74 141.179 1076.44 138.574 1106.68 139.938C1106.68 139.938 1106.77 139.944 1107.03 139.966C1107.15 139.977 1107.29 139.989 1107.45 140.004C1107.6 140.017 1107.77 140.032 1107.95 140.049C1108.73 140.12 1109.78 140.218 1111.03 140.334C1112.12 140.437 1113.37 140.554 1114.69 140.678C1116.37 140.836 1118.17 141.006 1119.96 141.173C1123.17 141.473 1126.35 141.768 1128.74 141.979C1129.93 142.085 1130.93 142.17 1131.64 142.225C1131.99 142.252 1132.29 142.273 1132.5 142.285C1132.61 142.291 1132.72 142.296 1132.83 142.298C1132.87 142.298 1132.97 142.299 1133.09 142.291C1133.13 142.288 1133.29 142.277 1133.48 142.234C1133.56 142.215 1133.78 142.163 1134.04 142.037L1134.04 142.036C1134.18 141.965 1135 141.563 1135.32 140.537C1135.57 139.723 1135.54 138.939 1135.45 138.347C1135.36 137.742 1135.19 137.167 1135.03 136.695C1134.89 136.304 1134.74 135.911 1134.62 135.592L1134.54 135.407C1134.39 135.014 1134.31 134.791 1134.28 134.653C1133.8 132.804 1133.39 130.929 1132.97 129.011C1132.92 128.758 1132.86 128.504 1132.81 128.249C1132.45 126.586 1132.08 124.889 1131.68 123.202C1131.37 121.912 1131.06 120.623 1130.75 119.335C1128.43 109.718 1126.12 100.15 1124.16 90.5175C1124.1 90.2322 1124.05 89.5811 1123.96 88.4359C1123.88 87.3963 1123.77 86.1034 1123.6 84.8187C1123.42 83.5536 1123.16 82.1671 1122.73 80.9627C1122.33 79.8772 1121.58 78.3241 1120.02 77.574C1118.08 76.6452 1115.85 76.1327 1113.82 75.7593C1112.9 75.5901 1112.06 75.4543 1111.27 75.3264C1110.16 75.1478 1109.16 74.9846 1108.15 74.767C1104.55 73.9844 1100.95 73.1556 1097.34 72.3226L1096.84 72.2067C1093.06 71.3361 1089.26 70.4633 1085.45 69.6453C1062.54 64.7353 1039.39 60.7222 1016.19 57.2899C1005.85 55.7599 995.497 54.4518 985.135 53.222C984.889 53.1928 984.711 53.1396 984.399 53.0466C984.195 52.9854 983.932 52.9071 983.555 52.8071C982.834 52.6157 981.617 52.3424 980.3 52.7445C979.306 53.0478 978.854 53.8068 978.714 54.0674C978.537 54.3979 978.447 54.7155 978.399 54.9137C978.299 55.3282 978.252 55.7813 978.226 56.1655C978.17 56.9654 978.173 57.95 978.195 58.8609C978.217 59.7883 978.261 60.7091 978.299 61.4059C978.343 62.2158 978.364 62.5219 978.364 62.4938V126.634ZM1043.2 96.6518C1043.25 96.8576 1043.31 97.0933 1043.4 97.3636C1043.47 97.5924 1043.57 97.888 1043.69 98.2187C1043.94 98.953 1044.26 99.86 1044.44 100.591L1044.44 100.593C1044.45 100.666 1044.56 101.119 1046.2 101.354C1047.55 101.548 1049.08 101.453 1050.41 101.37C1050.57 101.36 1050.73 101.35 1050.89 101.34C1057.75 100.935 1062.27 100.209 1066.15 95.84C1066.82 95.091 1067.71 94.0378 1068.29 92.9838C1068.82 92.0201 1068.77 91.6484 1068.76 91.6006C1068.66 91.462 1068.35 91.1698 1067.48 90.9111C1066.57 90.6417 1065.37 90.5047 1063.99 90.4858C1061.25 90.4482 1058.32 90.8793 1056.73 91.1331C1052.71 91.7788 1049.41 93.4737 1045.55 95.4555C1044.92 95.7753 1044.29 96.1026 1043.63 96.4342C1043.49 96.5069 1043.34 96.5794 1043.2 96.6518ZM573.007 65.4301C573.004 65.4304 572.998 65.4306 572.989 65.4304C573.005 65.4294 573.01 65.4298 573.007 65.4301ZM569.614 66.4989C564.791 68.0283 559.951 69.5039 555.076 70.9006C552.46 71.6499 549.847 72.3952 547.236 73.1397C528.822 78.391 510.538 83.605 492.528 89.9448C476.559 95.5664 460.884 101.844 445.749 109.311C445.512 109.427 445.09 109.594 444.723 109.739C444.629 109.776 444.539 109.811 444.457 109.844C444.098 109.987 443.71 110.146 443.326 110.317C443.435 110.391 443.547 110.466 443.661 110.542C444.283 110.958 444.924 111.369 445.499 111.736L445.718 111.876C446.26 112.224 446.905 112.635 447.236 112.902C450.545 115.577 454.443 118.791 457.3 122.463C457.527 122.755 457.686 123.054 457.799 123.338C458.321 123.189 458.848 123.019 459.283 122.874C459.65 122.752 460.124 122.588 460.272 122.544C465.553 120.979 470.827 119.446 476.093 117.916C488.808 114.222 501.474 110.541 514.062 106.458C514.357 106.363 514.814 106.154 515.53 105.803C515.631 105.754 515.735 105.703 515.843 105.65C516.434 105.359 517.128 105.018 517.822 104.716C518.641 104.361 519.592 104.001 520.556 103.812C521.492 103.628 522.728 103.547 523.927 104.072C527.125 105.471 529.961 107.546 532.441 109.571C539.614 115.43 546.55 121.418 553.457 127.382C564.089 136.561 574.65 145.68 585.902 154.172C587.004 155.004 587.223 156.571 586.392 157.673C585.56 158.775 583.992 158.994 582.89 158.163C571.563 149.614 560.722 140.258 549.957 130.968C543.069 125.024 536.212 119.107 529.278 113.444C526.927 111.524 524.524 109.799 521.971 108.673C521.932 108.67 521.795 108.664 521.519 108.718C521.074 108.805 520.505 109.003 519.813 109.303C519.238 109.553 518.668 109.833 518.076 110.124C517.961 110.18 517.845 110.237 517.728 110.294C517.075 110.614 516.296 110.99 515.605 111.215C502.94 115.322 490.156 119.037 477.41 122.741C472.161 124.266 466.919 125.789 461.694 127.337C461.702 127.335 461.655 127.35 461.471 127.413C461.353 127.453 461.202 127.505 461.03 127.562C460.976 127.581 460.92 127.599 460.862 127.619C460.379 127.779 459.747 127.983 459.101 128.166C458.476 128.342 457.748 128.525 457.096 128.615C456.781 128.658 456.363 128.698 455.931 128.661C455.659 128.638 454.595 128.539 453.845 127.602C453.37 127.008 453.213 126.379 453.151 125.973C453.106 125.676 453.097 125.371 453.094 125.206C450.663 122.183 447.334 119.412 444.092 116.79C444.094 116.792 444.092 116.791 444.086 116.786C444.063 116.77 443.979 116.71 443.796 116.588C443.591 116.453 443.331 116.285 443.021 116.087L442.803 115.948C442.233 115.583 441.549 115.145 440.883 114.7C440.141 114.204 439.355 113.656 438.736 113.15C438.434 112.903 438.099 112.607 437.817 112.287C437.677 112.128 437.498 111.905 437.341 111.628C437.203 111.382 436.958 110.879 436.958 110.211C436.958 109.329 437.327 108.649 437.639 108.226C437.953 107.8 438.329 107.468 438.648 107.225C439.285 106.737 440.051 106.33 440.705 106.018C441.384 105.695 442.07 105.413 442.603 105.2C442.765 105.136 442.882 105.09 442.987 105.048C443.087 105.009 443.177 104.973 443.285 104.93C443.494 104.846 443.549 104.821 443.536 104.827C458.9 97.2478 474.77 90.8955 490.868 85.2285C509.032 78.8345 527.472 73.5762 545.873 68.329C548.482 67.5848 551.091 66.8409 553.699 66.0939C558.869 64.6126 564.009 63.039 569.143 61.402C569.24 61.3708 569.39 61.3125 569.747 61.1803C570.052 61.0671 570.446 60.9246 570.865 60.7975C571.276 60.6729 571.777 60.5431 572.296 60.4767C572.774 60.4155 573.509 60.3739 574.267 60.6265C574.958 60.8569 575.715 61.312 576.208 62.1408C576.693 62.9551 576.726 63.7972 576.638 64.4198C576.482 65.5353 575.858 66.5614 575.394 67.2432C574.873 68.0096 574.239 68.779 573.686 69.4294C573.478 69.6748 573.287 69.8967 573.112 70.1C572.785 70.4797 572.514 70.7945 572.29 71.0758C567.808 76.7046 563.194 82.2324 558.472 87.6569C558.201 87.9686 557.853 88.4309 557.395 89.0545C557.334 89.1378 557.271 89.2235 557.207 89.3111C556.815 89.8449 556.37 90.451 555.911 91.0392C555.376 91.7235 554.774 92.4441 554.137 93.0733C553.522 93.6793 552.741 94.3359 551.828 94.7418C549.951 95.5761 547.841 95.9077 546.09 96.1828L546.018 96.1941C545.639 96.2537 545.273 96.3114 544.92 96.3699C547.565 97.7322 550.238 99.0968 552.929 100.471C571.483 109.942 590.878 119.843 607.578 132.368C612.452 136.023 617.733 139.343 623.149 142.673C623.874 143.119 624.603 143.566 625.333 144.013C630.022 146.888 634.78 149.805 639.313 152.931C639.471 153.04 639.819 153.232 640.379 153.516C640.547 153.601 640.738 153.697 640.936 153.796C641.305 153.98 641.703 154.178 642.035 154.352C642.304 154.493 642.584 154.646 642.838 154.8C643.057 154.934 643.399 155.152 643.697 155.437C643.834 155.568 644.122 155.86 644.332 156.306C644.568 156.808 644.79 157.742 644.248 158.7C643.791 159.508 643.07 159.804 642.79 159.902C642.455 160.018 642.147 160.056 641.951 160.073C634.202 160.718 626.499 161.659 618.729 162.653C617.654 162.791 616.58 162.93 615.505 163.068C602.429 164.754 589.318 166.444 575.912 166.444C574.531 166.444 573.412 165.325 573.412 163.944C573.412 162.564 574.531 161.444 575.912 161.444C588.981 161.444 601.784 159.795 614.922 158.102C615.977 157.966 617.034 157.83 618.094 157.694C623.567 156.993 629.048 156.314 634.556 155.745C630.727 153.185 626.754 150.749 622.733 148.284C622 147.835 621.266 147.384 620.53 146.932C615.111 143.6 609.654 140.175 604.578 136.368C588.251 124.123 569.285 114.438 550.703 104.949C547.765 103.449 544.836 101.953 541.929 100.453C541.084 100.017 540.294 99.6971 539.595 99.4287C539.499 99.3919 539.395 99.3527 539.285 99.3116C538.747 99.1087 538.08 98.8575 537.628 98.6063L537.618 98.6006C537.407 98.4835 536.628 98.0512 536.231 97.144C535.978 96.5651 535.929 95.907 536.118 95.2765C536.287 94.7134 536.6 94.325 536.818 94.0998C537.224 93.6804 537.718 93.4058 538.037 93.2413C538.41 93.049 538.854 92.855 539.343 92.6559C541.243 91.8815 543.318 91.5564 545.041 91.2863L545.242 91.2547C547.138 90.9566 548.603 90.7034 549.797 90.1727C549.907 90.1241 550.184 89.9496 550.625 89.5143C551.042 89.1021 551.494 88.5711 551.971 87.9599C552.381 87.4363 552.775 86.8982 553.17 86.3609L553.366 86.093C553.802 85.4998 554.271 84.8679 554.701 84.3742C559.377 79.0017 563.944 73.5299 568.379 67.9612C568.662 67.6049 569.039 67.1666 569.408 66.7387C569.477 66.6582 569.546 66.5781 569.614 66.4989ZM806.443 67.3684C806.752 68.102 806.778 68.9317 806.778 69.5187C806.778 73.9531 806.785 78.3922 806.793 82.8337C806.807 91.724 806.822 100.624 806.778 109.517C806.771 110.848 806.699 112.075 806.479 113.08C806.292 113.937 805.84 115.413 804.425 116.162C802.866 116.987 801.348 116.341 800.53 115.866C799.623 115.338 798.68 114.512 797.718 113.55C797.71 113.542 797.695 113.502 797.466 113.465C797.223 113.425 797.032 113.422 796.715 113.416C796.527 113.413 796.294 113.408 795.979 113.395C795.311 113.367 794.262 113.288 793.234 112.739C792.776 112.495 792.372 112.187 792.018 111.821C791.426 112.438 790.736 113.244 789.966 114.148L789.846 114.289C788.875 115.429 787.705 116.805 786.717 117.587C786.44 117.807 786.076 118.064 785.651 118.255C785.434 118.353 785.112 118.474 784.721 118.529C784.561 119.018 784.409 119.511 784.279 119.946C784.099 120.553 784.002 120.924 783.972 121.039C783.964 121.068 783.961 121.081 783.961 121.077C783.828 121.863 783.587 122.762 783.048 123.5C782.757 123.899 782.337 124.307 781.754 124.575C781.156 124.85 780.539 124.907 779.984 124.827C778.987 124.682 778.25 124.108 777.84 123.74C777.374 123.321 776.957 122.819 776.603 122.343C775.448 120.789 774.302 118.565 773.778 117.549C773.684 117.367 773.61 117.223 773.56 117.13C773.37 116.776 773.225 116.312 773.148 116.068L773.145 116.056C773.041 115.723 772.92 115.308 772.795 114.881C772.558 114.07 772.287 113.151 771.991 112.287C771.913 112.423 771.834 112.564 771.753 112.71C771.63 112.932 771.499 113.172 771.362 113.425C770.837 114.395 770.217 115.541 769.532 116.478C769.149 117.002 768.566 117.557 767.726 117.823C766.853 118.1 766.039 117.96 765.421 117.697C764.362 117.245 763.643 116.335 763.256 115.794C762.482 114.711 761.849 113.325 761.623 112.829C761.596 112.77 761.575 112.724 761.56 112.692C761.428 112.413 761.313 112.12 761.211 111.826C760.716 112.864 760.092 114.117 759.346 115.179C758.657 116.162 757.517 117.496 755.819 117.913C753.805 118.407 752.077 117.419 750.808 116.008C750.23 115.366 749.797 114.514 749.52 113.958C749.437 113.792 749.362 113.639 749.293 113.496C748.815 113.842 748.288 114.115 747.708 114.29C746.464 114.666 745.273 114.502 744.262 114.112C742.408 113.397 740.813 111.78 739.613 110.418C738.972 109.69 738.352 108.924 737.785 108.22L737.662 108.067C737.131 107.407 736.654 106.815 736.204 106.297C735.997 106.058 735.811 105.854 735.644 105.68C735.581 105.81 735.513 105.955 735.442 106.117C735.051 107.006 734.707 107.995 734.331 109.075C734.124 109.671 733.908 110.294 733.668 110.944C733.357 111.787 733.008 112.663 732.614 113.422C732.256 114.111 731.698 115.039 730.833 115.656C730.354 115.999 729.707 116.298 728.921 116.328C728.125 116.359 727.429 116.107 726.875 115.753C725.883 115.119 725.183 114.055 724.642 113.014C724.536 112.812 724.422 112.596 724.302 112.369C724.201 112.179 724.096 111.982 723.99 111.779C723.694 112.278 723.339 112.793 722.914 113.246C722.444 113.747 721.757 114.314 720.83 114.579C719.196 115.046 717.572 114.515 716.421 113.978C715.182 113.4 713.945 112.553 712.845 111.694C710.635 109.967 708.624 107.908 707.71 106.929C707.562 106.77 707.411 106.609 707.258 106.446C707.202 106.387 707.146 106.327 707.089 106.266C707.092 118.502 707.145 130.647 707.753 142.806C707.803 143.807 707.541 144.776 706.929 145.593C706.349 146.367 705.583 146.836 704.89 147.126C703.564 147.681 701.972 147.799 700.641 147.805C699.245 147.811 697.796 147.687 696.611 147.572C696.339 147.546 696.088 147.521 695.858 147.498C694.99 147.413 694.411 147.355 694.062 147.355C690.052 147.355 686.066 147.291 682.098 147.228C673.976 147.097 665.928 146.968 657.9 147.391C657.808 147.396 657.749 147.405 657.709 147.414C657.688 147.419 657.672 147.424 657.66 147.427C657.644 147.432 657.626 147.437 657.595 147.447C657.576 147.453 657.51 147.474 657.452 147.492C657.433 147.497 656.951 147.662 656.373 147.61C656.007 147.576 655.574 147.459 655.157 147.178C654.752 146.905 654.5 146.571 654.349 146.306C654.097 145.866 654.026 145.434 654.009 145.342C653.973 145.146 653.913 144.651 653.88 144.429C653.269 140.219 652.583 136.014 651.849 131.813C649.138 116.298 648.462 101.015 648.368 85.5026C647.882 85.4827 647.404 85.4448 646.951 85.3823C646.317 85.2949 645.608 85.1438 644.952 84.8552C644.313 84.574 643.461 84.0439 642.963 83.0488C642.346 81.8138 642.846 80.3121 644.081 79.6947C645.14 79.1653 646.395 79.4576 647.12 80.3298C647.231 80.3601 647.398 80.3967 647.634 80.4292C647.883 80.4635 648.16 80.4873 648.461 80.5021C648.771 79.4732 649.726 78.7237 650.856 78.7237C651.91 78.7237 652.812 79.3768 653.18 80.3005C653.26 80.2935 653.339 80.2865 653.417 80.2796L653.581 80.265C654.28 80.2029 655.014 80.1377 655.49 80.1377C681.083 80.1377 706.685 78.1743 732.225 75.5941C736.498 75.1624 740.805 74.7625 745.128 74.361C764.038 72.6049 783.253 70.8206 801.224 66.2322C801.477 66.1676 801.703 66.0796 802.028 65.9514C802.041 65.9464 802.057 65.9399 802.076 65.932C802.295 65.8429 802.928 65.585 803.57 65.5508C804.022 65.5267 804.664 65.5919 805.295 65.9911C805.92 66.3863 806.261 66.9356 806.443 67.3684ZM653.367 85.3032C653.457 100.763 654.123 115.78 656.775 130.952C657.436 134.739 658.061 138.538 658.628 142.348C666.506 141.977 674.514 142.105 682.405 142.231C686.33 142.293 690.226 142.355 694.062 142.355C694.685 142.355 695.612 142.448 696.507 142.538C696.705 142.557 696.901 142.577 697.092 142.596C698.26 142.708 699.495 142.81 700.62 142.805C701.612 142.801 702.311 142.712 702.737 142.59C702.117 129.918 702.089 117.285 702.089 104.673C702.089 104.736 702.09 104.741 702.077 104.566L702.068 104.444L702.047 104.182C702.034 104.008 702.018 103.806 702.003 103.589C701.956 102.919 701.904 102.043 701.902 101.24C701.902 100.841 701.913 100.415 701.951 100.019C701.982 99.7003 702.053 99.1081 702.311 98.5533C702.436 98.2843 702.756 97.6891 703.454 97.2894C704.322 96.7924 705.246 96.8842 705.91 97.1942C706.453 97.4478 706.8 97.8252 706.973 98.0333C707.172 98.2731 707.335 98.5285 707.466 98.7586C708.337 100.283 709.488 101.512 710.944 103.066C711.082 103.214 711.222 103.364 711.366 103.517C712.21 104.422 714.014 106.263 715.923 107.754C716.884 108.504 717.782 109.096 718.535 109.447C718.936 109.634 719.197 109.707 719.345 109.736C719.452 109.604 719.592 109.403 719.755 109.115C720.167 108.387 720.556 107.423 720.909 106.436C721.033 106.088 721.172 105.676 721.307 105.278C721.487 104.744 721.659 104.236 721.771 103.951C721.826 103.811 721.925 103.57 722.061 103.336C722.118 103.236 722.274 102.975 722.542 102.718C722.726 102.543 723.636 101.729 724.974 102.096C726.178 102.427 726.591 103.434 726.657 103.597L726.658 103.599C726.781 103.901 726.824 104.168 726.841 104.286C726.88 104.554 726.885 104.825 726.885 105.027C726.885 105.779 727.098 106.608 727.512 107.589C727.838 108.361 728.224 109.091 728.655 109.905C728.666 109.926 728.678 109.947 728.689 109.968C728.782 109.734 728.878 109.483 728.977 109.213C729.143 108.764 729.323 108.248 729.512 107.704C729.931 106.504 730.397 105.167 730.866 104.102C731.216 103.306 731.659 102.435 732.232 101.728C732.771 101.062 733.798 100.091 735.344 100.091C736.604 100.091 737.596 100.76 738.169 101.216C738.813 101.728 739.428 102.384 739.979 103.018C740.494 103.611 741.029 104.276 741.545 104.916L741.68 105.084C742.25 105.793 742.806 106.479 743.365 107.113C744.563 108.473 745.458 109.214 746.062 109.447C746.178 109.492 746.241 109.501 746.268 109.502C746.304 109.486 746.48 109.396 746.765 109.03C747.117 108.577 747.63 108.055 748.356 107.743C749.175 107.39 750.05 107.398 750.828 107.711C751.511 107.986 751.986 108.441 752.279 108.776C752.586 109.127 752.832 109.508 753.024 109.835C753.305 110.315 753.59 110.898 753.816 111.363C753.881 111.497 753.942 111.621 753.996 111.73C754.134 112.008 754.251 112.23 754.356 112.408C754.407 112.495 754.449 112.559 754.481 112.605C754.51 112.647 754.525 112.664 754.525 112.664L754.524 112.663C754.619 112.769 754.698 112.848 754.763 112.907C754.877 112.794 755.043 112.608 755.254 112.306C755.742 111.612 756.216 110.686 756.708 109.652C756.797 109.464 756.89 109.265 756.986 109.061C757.357 108.268 757.765 107.399 758.138 106.772C758.505 106.155 758.886 105.597 759.291 105.151C759.642 104.766 760.296 104.139 761.264 103.937C762.526 103.675 763.527 104.259 764.093 104.888C764.556 105.403 764.8 106.001 764.93 106.365C765.153 106.984 765.332 107.788 765.475 108.426C765.504 108.555 765.531 108.678 765.557 108.791C765.744 109.605 765.905 110.183 766.082 110.559C766.115 110.629 766.152 110.708 766.192 110.794C766.308 111.045 766.452 111.356 766.617 111.681C766.695 111.539 766.774 111.393 766.856 111.241C767.019 110.941 767.193 110.622 767.382 110.282C768.067 109.048 768.966 107.536 770.24 106.389C770.603 106.062 771.111 105.747 771.761 105.627C772.425 105.503 773.035 105.621 773.526 105.836C774.39 106.214 774.923 106.907 775.196 107.307C775.798 108.188 776.274 109.39 776.63 110.402C777.007 111.475 777.34 112.608 777.594 113.477C777.665 113.72 777.729 113.938 777.786 114.131C777.834 114.293 777.878 114.438 777.917 114.565C777.971 114.736 778.002 114.823 778.011 114.851C778.097 115.012 778.196 115.203 778.306 115.416C778.665 116.107 779.145 117.032 779.67 117.916C779.852 117.324 780.061 116.678 780.272 116.073C780.535 115.32 780.873 114.422 781.213 113.826C781.3 113.673 781.457 113.416 781.685 113.167C781.799 113.042 782.004 112.838 782.303 112.658C782.6 112.479 783.147 112.232 783.861 112.293C784.205 112.323 784.501 112.409 784.752 112.529C785.157 112.079 785.626 111.533 786.16 110.906L786.263 110.784C787.261 109.612 788.465 108.197 789.533 107.288C790.021 106.873 790.867 106.212 791.905 106.019C792.52 105.905 793.321 105.935 794.091 106.395C794.832 106.839 795.232 107.496 795.444 108.026C795.515 108.204 795.572 108.293 795.603 108.333C795.652 108.348 795.804 108.384 796.187 108.399C796.256 108.402 796.352 108.404 796.468 108.406C796.914 108.415 797.651 108.429 798.268 108.53C799.204 108.682 800.299 109.06 801.254 110.015C801.431 110.192 801.598 110.355 801.755 110.502C801.769 110.198 801.776 109.862 801.778 109.492C801.822 100.614 801.807 91.7418 801.793 82.8603C801.786 78.9923 801.78 75.1225 801.778 71.2497C783.582 75.8179 764.13 77.6219 745.433 79.3558C741.15 79.753 736.907 80.1465 732.728 80.5688C707.119 83.1559 681.327 85.1377 655.49 85.1377C655.26 85.1377 654.747 85.1815 653.858 85.2601C653.701 85.274 653.537 85.2885 653.367 85.3032ZM795.629 108.36C795.629 108.36 795.622 108.356 795.612 108.343C795.625 108.353 795.63 108.359 795.629 108.36ZM754.984 113.07C754.985 113.072 754.973 113.068 754.948 113.053C754.971 113.061 754.983 113.068 754.984 113.07ZM746.278 109.502C746.276 109.502 746.273 109.502 746.269 109.502C746.283 109.499 746.287 109.501 746.278 109.502ZM736.176 104.81C736.176 104.811 736.17 104.817 736.158 104.828C736.169 104.815 736.175 104.81 736.176 104.81ZM734.887 105.008C734.872 105.001 734.865 104.997 734.865 104.996C734.865 104.996 734.872 104.999 734.887 105.008ZM748.515 112.068C748.516 112.069 748.517 112.07 748.518 112.072C748.51 112.063 748.509 112.061 748.515 112.068ZM763.03 108.476C763.031 108.476 763.021 108.487 763 108.505C763.019 108.485 763.029 108.476 763.03 108.476ZM760.197 107.983C760.192 107.975 760.19 107.969 760.189 107.967C760.187 107.963 760.19 107.968 760.197 107.983ZM771.02 110.065C771.019 110.063 771.027 110.072 771.045 110.095C771.029 110.078 771.021 110.067 771.02 110.065ZM346.681 74.7964C344.218 73.3853 340.467 73.0871 335.601 74.2721C331.97 75.1563 327.262 77.2307 324.171 80.0203C325.031 81.4948 325.688 83.114 326.094 84.8713C326.122 84.994 326.172 85.1842 326.235 85.4202C326.419 86.1166 326.709 87.2112 326.848 88.141C327.031 89.3629 327.179 91.4313 325.918 93.0796C325.216 93.9979 324.238 94.7632 322.961 94.9489C321.708 95.1312 320.655 94.6826 319.935 94.1998C318.588 93.2964 317.669 91.7985 317.206 90.8464C316.056 88.4781 315.748 86.1266 316.171 83.8863C316.448 82.4211 317.023 81.077 317.783 79.8601C314.876 76.9225 310.519 74.9882 305.747 74.3161C300.268 73.5444 294.684 74.5031 290.767 77.0435C285.482 80.4718 283.721 87.1658 283.604 95.4628C283.547 99.5271 283.886 103.752 284.269 107.815C284.333 108.502 284.4 109.186 284.465 109.865C284.783 113.145 285.089 116.308 285.15 118.999C285.205 121.428 285.183 123.124 284.999 124.064C284.957 124.275 284.852 124.778 284.54 125.261C284.373 125.521 284.017 125.977 283.38 126.256C282.653 126.575 281.916 126.51 281.35 126.276C280.863 126.074 280.55 125.773 280.396 125.607C280.226 125.424 280.104 125.245 280.024 125.117C279.867 124.865 279.746 124.603 279.659 124.4C279.355 123.684 279.012 122.566 278.69 121.512C278.664 121.427 278.638 121.342 278.612 121.259C278.24 120.042 277.852 118.795 277.451 117.757C274.839 110.99 271.16 106.031 266.497 102.963C261.861 99.9125 256.014 98.5733 248.743 99.4629C246.966 99.6802 245.888 100.244 245.204 100.878C244.513 101.518 244.031 102.409 243.761 103.605C243.194 106.114 243.668 109.473 244.569 112.831C247.635 124.257 254.771 133.482 263.726 141.493C271.982 148.88 281.622 155.101 290.823 161.038C291.632 161.56 292.438 162.08 293.239 162.599C294.399 163.349 294.73 164.897 293.98 166.056C293.23 167.215 291.682 167.547 290.523 166.797C289.712 166.272 288.893 165.744 288.067 165.211C278.924 159.313 268.957 152.883 260.392 145.22C251.026 136.84 243.147 126.827 239.74 114.126C238.797 110.612 238.036 106.258 238.884 102.504C239.321 100.569 240.208 98.6909 241.805 97.2111C243.408 95.7254 245.534 94.8181 248.135 94.4999C256.379 93.4914 263.46 94.9791 269.245 98.7857C273.446 101.55 276.836 105.451 279.479 110.254C279.417 109.61 279.354 108.954 279.291 108.284C278.906 104.204 278.543 99.7477 278.605 95.3923C278.725 86.8498 280.485 77.7534 288.046 72.8487C293.203 69.5039 300.073 68.4676 306.444 69.3649C311.856 70.1271 317.228 72.3322 321.076 76.0825C325.012 72.6426 330.454 70.3793 334.418 69.414C339.867 68.087 345.116 68.1377 349.166 70.4577C352.568 72.4062 354.718 75.7107 355.529 80.125C357.742 79.5056 359.935 79.1781 361.025 79.0155C361.175 78.993 361.305 78.9737 361.411 78.9571C365.32 78.3453 370.542 77.7281 375.572 78.1836C380.556 78.6351 385.82 80.1839 389.257 84.3539C392.061 87.7553 393.334 92.2093 393.374 96.5951C393.397 99.0536 393.035 101.556 392.295 103.928C394.113 103.544 395.885 103.281 397.483 103.066C400.254 102.694 403.888 102.267 407.335 102.733C410.835 103.206 414.476 104.651 416.779 108.293C418.908 111.66 419.441 115.744 419.159 119.546C418.876 123.369 417.755 127.158 416.284 130.169C414.22 134.396 411.22 138.374 408.564 141.86C406.31 144.818 404.653 148.229 402.91 151.819C402.252 153.175 401.581 154.556 400.861 155.948C400.227 157.175 398.718 157.654 397.492 157.02C396.266 156.386 395.786 154.877 396.42 153.651C397.008 152.515 397.6 151.295 398.211 150.035C400.02 146.309 402.004 142.219 404.586 138.83C407.283 135.291 409.977 131.69 411.791 127.975C413.002 125.496 413.94 122.323 414.173 119.177C414.407 116.009 413.914 113.117 412.553 110.965C411.322 109.017 409.318 108.046 406.665 107.688C403.961 107.322 400.938 107.647 398.149 108.022C395.238 108.413 392.149 108.922 389.375 109.906C388.167 111.61 386.677 113.12 384.905 114.302C384.524 114.556 384.02 114.769 383.657 114.905C383.254 115.056 382.706 115.232 382.162 115.315C381.908 115.354 381.485 115.401 381.016 115.33C380.617 115.27 379.5 115.01 378.925 113.829C378.377 112.705 378.795 111.69 378.964 111.341C379.176 110.904 379.47 110.533 379.725 110.246C381.505 108.245 383.731 106.848 386.044 105.845C387.586 103.169 388.405 99.8869 388.375 96.6418C388.342 93.1256 387.318 89.8615 385.399 87.5343C383.211 84.8795 379.567 83.566 375.121 83.1633C370.72 82.7646 365.99 83.3013 362.184 83.897C362.061 83.9162 361.926 83.9369 361.779 83.9593C360.333 84.1806 357.795 84.569 355.717 85.2967C355.59 85.777 355.412 86.2129 355.249 86.5622C354.916 87.2734 354.463 87.9971 353.962 88.5804C353.714 88.8685 353.394 89.1932 353.01 89.4636C352.69 89.6886 351.973 90.1287 351.013 90.0794C349.762 90.0151 348.946 89.1996 348.575 88.412C348.269 87.7632 348.221 87.0892 348.221 86.6118C348.221 84.5302 349.473 83.1146 350.781 82.1891C350.351 78.204 348.743 75.9772 346.681 74.7964ZM353.203 86.7015C353.203 86.7019 353.204 86.699 353.208 86.6928C353.206 86.6982 353.204 86.7012 353.203 86.7015ZM353.224 86.6927C353.224 86.6934 353.223 86.6862 353.222 86.6706C353.224 86.6844 353.224 86.6921 353.224 86.6927ZM381.403 110.373C381.39 110.375 381.391 110.374 381.404 110.373C381.404 110.373 381.403 110.373 381.403 110.373ZM280.092 123.102C280.086 123.133 280.085 123.125 280.095 123.088C280.094 123.093 280.093 123.098 280.092 123.102ZM321.022 85.2375C320.912 86.2471 321.079 87.3761 321.704 88.6619C321.768 88.7949 321.845 88.9372 321.93 89.0802C321.923 89.0176 321.914 88.9516 321.903 88.8818C321.805 88.2259 321.66 87.6846 321.502 87.0967C321.411 86.7558 321.315 86.3993 321.222 85.9956C321.162 85.7388 321.096 85.4861 321.022 85.2375ZM175.027 99.8467C176.308 99.3324 177.764 99.9542 178.278 101.236C180.912 107.797 178.424 113.745 174.443 118.086C170.502 122.384 164.83 125.473 159.96 126.761C158.46 127.158 156.956 127.454 155.453 127.656C155.844 128.235 155.992 128.974 155.797 129.703C155.439 131.036 154.069 131.828 152.735 131.47L132.437 126.032C130.718 125.571 128.983 125.183 127.171 124.777C126.014 124.518 124.826 124.252 123.59 123.956C120.528 123.222 117.359 122.338 114.447 121.013C113.022 120.365 111.928 119.179 111.74 117.538C111.574 116.087 112.188 114.827 112.826 113.981C113.492 113.098 114.408 112.349 115.415 111.866C116.399 111.394 117.728 111.058 119.108 111.428C121.801 112.15 124.059 113.347 126.105 114.575C126.844 115.019 127.53 115.45 128.195 115.867C129.457 116.66 130.648 117.407 131.998 118.118C140.413 122.548 149.726 124.296 158.682 121.927C162.732 120.856 167.534 118.224 170.758 114.707C173.943 111.233 175.313 107.272 173.638 103.098C173.123 101.817 173.745 100.361 175.027 99.8467ZM123.328 118.741C121.528 117.67 119.807 116.8 117.872 116.274C117.836 116.278 117.74 116.297 117.578 116.374C117.403 116.458 117.229 116.577 117.08 116.71C119 117.53 121.105 118.171 123.328 118.741Z" fill="#1B55EA"/>
</svg>
